<svg width="512" height="512" viewBox="0 0 512 512" fill="none" xmlns="http://www.w3.org/2000/svg" role="img" aria-labelledby="title desc">
  <title id="title">RDR2 Mod Manager Logo</title>
  <desc id="desc">A shield logo with RDR2 Mod Manager initials for an open-source Red Dead Redemption 2 mod manager.</desc>
  <rect width="512" height="512" rx="96" fill="#1E2028"/>
  <path d="M256 64L392 118V224C392 312 336 392 256 448C176 392 120 312 120 224V118L256 64Z" fill="#B3261E"/>
  <path d="M174 184H286C330 184 358 210 358 248C358 278 341 300 312 309L366 384H298L252 316H232V384H174V184ZM232 236V268H281C293 268 300 262 300 252C300 242 293 236 281 236H232Z" fill="#F7F7F7"/>
</svg>
